<?xml version="1.0" encoding="UTF-8" standalone="no"?><!-- Generator: Gravit.io --><svg xmlns="http://www.w3.org/2000/svg" xmlns:xlink="http://www.w3.org/1999/xlink" style="isolation:isolate" viewBox="0 0 595.276 566.929" width="595.276pt" height="566.929pt"><defs><clipPath id="_clipPath_gOLsI15gX5ZoKiHUD69Tjw1L3U0MTGDv"><rect width="595.276" height="566.929"/></clipPath></defs><g clip-path="url(#_clipPath_gOLsI15gX5ZoKiHUD69Tjw1L3U0MTGDv)"><path d=" M 363.775 62.095 Q 364.421 62.01 365.071 61.925 L 455.01 52.573 Q 427.619 9.023 316.775 45.944 L 316.775 45.944 L 316.775 45.944 L 316.775 45.944 Q 311.068 47.845 306.076 49.593 C 302.271 49.368 298.437 49.254 294.576 49.254 C 199.66 49.254 120.515 118.209 103.313 209.331 C 94.359 200.69 83.449 195.617 71.683 195.617 C 41.266 195.617 16.572 229.521 16.572 271.281 L 16.572 271.281 L 16.572 271.281 C 16.572 313.041 41.266 346.945 71.683 346.945 C 88.582 346.945 103.716 336.479 113.823 320.008 C 142.599 392.566 212.723 443.848 294.576 443.848 C 378.898 443.848 450.773 389.426 477.819 313.385 L 477.819 313.385 C 487.707 333.622 504.526 346.945 523.593 346.945 C 554.009 346.945 578.703 313.041 578.703 271.281 C 578.703 229.521 554.009 195.617 523.593 195.617 C 509.461 195.617 496.564 202.936 486.811 214.97 C 478.95 165.524 452.923 122.203 415.9 92.266 L 415.9 92.266 L 487.422 97.834 Q 469.557 53.6 369.245 64.302 C 367.435 63.539 365.612 62.803 363.775 62.095 Z " fill-rule="evenodd" fill="rgb(92,77,77)"/><path d=" M 159.248 377.772 C 170.882 288.306 219.887 213.668 294.576 213.668 C 369.266 213.668 423.047 287.583 429.904 377.772 C 440.667 519.333 364.69 530 290 530 C 215.31 530 140.667 520.667 159.248 377.772 Z " fill="rgb(169,104,81)"/><path d=" M 150 230 C 150 189.916 210.974 214.309 230 180 C 249.865 144.178 294.576 182.234 294.576 222.318 C 294.576 262.401 258.632 294.944 214.359 294.944 C 170.086 294.944 150 270.084 150 230 Z " fill="rgb(169,104,81)"/><path d=" M 439.152 230 C 439.152 189.916 378.178 214.309 359.152 180 C 339.287 144.178 294.576 182.234 294.576 222.318 C 294.576 262.401 330.52 294.944 374.793 294.944 C 419.066 294.944 439.152 270.084 439.152 230 Z " fill="rgb(169,104,81)"/><ellipse vector-effect="non-scaling-stroke" cx="257.22312204580464" cy="242.7109069460095" rx="26.33077195273853" ry="20.39338706441268" fill="rgb(33,23,23)"/><ellipse vector-effect="non-scaling-stroke" cx="330.70434609995874" cy="242.7109069460095" rx="26.33077195273853" ry="20.39338706441268" fill="rgb(33,23,23)"/><ellipse vector-effect="non-scaling-stroke" cx="284.3492762466914" cy="305.4914547688907" rx="8.572809472984659" ry="10.547323207389468" fill="rgb(33,23,23)"/><ellipse vector-effect="non-scaling-stroke" cx="303.08565968895715" cy="305.4914547688907" rx="8.572809472984659" ry="10.547323207389468" fill="rgb(33,23,23)"/><path d=" M 238.503 235.112 C 237.659 233.375 238.988 230.985 241.47 229.778 C 243.951 228.571 246.652 229.002 247.497 230.739 C 248.341 232.477 247.012 234.867 244.53 236.073 C 242.049 237.28 239.348 236.849 238.503 235.112 Z " fill="rgb(235,235,235)"/><path d=" M 310.503 235.112 C 309.659 233.375 310.988 230.985 313.47 229.778 C 315.951 228.571 318.652 229.002 319.497 230.739 C 320.341 232.477 319.012 234.867 316.53 236.073 C 314.049 237.28 311.348 236.849 310.503 235.112 Z " fill="rgb(235,235,235)"/><path d=" M 180 440 C 180.411 421.657 229.289 467.037 290 467.037 C 350.711 467.037 400.411 421.001 400 440 C 399.749 451.602 353.633 490 292.922 490 C 232.211 490 179.74 451.602 180 440 Z " fill="rgb(33,23,23)"/></g></svg>